# xmcd
#
# Track frame offsets: 
#        150
#        16575
#        33500
#        43725
#        59625
#        74350
#        87152
#        98775
#        114200
#        126325
#        142275
#        158100
#        177075
#        191125
#        206525
#        222425
#        243675
#        258837
#
# Disc length: 3838 seconds
#
# Revision: 0
# Processed by: cddbd v1.5.1PL0 Copyright (c) Steve Scherf et al.
# Submitted via: ExactAudioCopy v0.95a4
#
DISCID=0a0efc12
DTITLE=Fairgraound Attraction - The Best Of Fairgraound Attraction
DYEAR=1900
DGENRE=Alternative
TTITLE0=Perfect
TTITLE1=Find My Love
TTITLE2=Fairground Attraction
TTITLE3=A Smile In A Whisper
TTITLE4=Clare
TTITLE5=Walking After Midnight
TTITLE6=Do You Want To Know A Secret
TTITLE7=Allelujah
TTITLE8=The Moon Is Mine
TTITLE9=Watching The Party
TTITLE10=Winter Rose
TTITLE11=The Wind Nkows My Name
TTITLE12=Jock O'hazeldean
TTITLE13=The Game Of Love
TTITLE14=Comedy Waltz
TTITLE15=You Send Me
TTITLE16=Ay Fond Kiss
TTITLE17=Clare(Live)
EXTD=
EXTT0=
EXTT1=
EXTT2=
EXTT3=
EXTT4=
EXTT5=
EXTT6=
EXTT7=
EXTT8=
EXTT9=
EXTT10=
EXTT11=
EXTT12=
EXTT13=
EXTT14=
EXTT15=
EXTT16=
EXTT17=
PLAYORDER=
